<svg width="304" height="25" viewBox="0 0 304 25" fill="none" xmlns="http://www.w3.org/2000/svg">
<g filter="url(#filter0_n_17_4)">
<path d="M0.764 24C0.524 24 0.404 23.856 0.404 23.568V0.852C0.404 0.563999 0.524 0.419999 0.764 0.419999H11.06C11.3 0.419999 11.42 0.563999 11.42 0.852V3.984C11.42 4.272 11.3 4.416 11.06 4.416H4.868V10.5H10.16C10.424 10.5 10.556 10.644 10.556 10.932V13.992C10.556 14.256 10.424 14.388 10.16 14.388H4.868V23.568C4.868 23.856 4.76 24 4.544 24H0.764ZM22.2484 24.216C19.9684 24.216 18.2644 23.544 17.1364 22.2C16.0084 20.856 15.4444 18.816 15.4444 16.08V0.815998C15.4444 0.551999 15.5644 0.419999 15.8044 0.419999H19.5844C19.8004 0.419999 19.9084 0.551999 19.9084 0.815998V15.972C19.9084 17.532 20.0884 18.624 20.4484 19.248C20.8324 19.872 21.4324 20.184 22.2484 20.184C23.0884 20.184 23.6884 19.872 24.0484 19.248C24.4324 18.624 24.6244 17.532 24.6244 15.972V0.815998C24.6244 0.551999 24.7444 0.419999 24.9844 0.419999H28.7284C28.9684 0.419999 29.0884 0.551999 29.0884 0.815998V16.08C29.0884 18.816 28.5124 20.856 27.3604 22.2C26.2324 23.544 24.5284 24.216 22.2484 24.216ZM34.1906 24C33.9266 24 33.7946 23.856 33.7946 23.568V0.852C33.7946 0.563999 33.9266 0.419999 34.1906 0.419999H37.8626C38.1266 0.419999 38.2586 0.563999 38.2586 0.852V20.004H43.9466C44.2106 20.004 44.3426 20.148 44.3426 20.436V23.568C44.3426 23.856 44.2106 24 43.9466 24H34.1906ZM48.5656 24C48.3016 24 48.1696 23.856 48.1696 23.568V0.852C48.1696 0.563999 48.3016 0.419999 48.5656 0.419999H52.2376C52.5016 0.419999 52.6336 0.563999 52.6336 0.852V20.004H58.3216C58.5856 20.004 58.7176 20.148 58.7176 20.436V23.568C58.7176 23.856 58.5856 24 58.3216 24H48.5656ZM74.5158 24.216C72.9798 24.216 71.7438 23.94 70.8078 23.388C69.8958 22.812 69.2478 21.996 68.8638 20.94C68.5038 19.86 68.3838 18.6 68.5038 17.16C68.5278 16.848 68.6478 16.692 68.8638 16.692H72.5358C72.7518 16.692 72.8478 16.836 72.8238 17.124C72.7278 18.132 72.8238 18.924 73.1118 19.5C73.4238 20.052 73.9158 20.328 74.5878 20.328C75.2118 20.328 75.6678 20.148 75.9558 19.788C76.2438 19.428 76.3878 18.84 76.3878 18.024C76.3878 17.328 76.2678 16.728 76.0278 16.224C75.8118 15.696 75.4398 15.24 74.9118 14.856L71.8518 12.48C70.7238 11.616 69.8838 10.692 69.3318 9.708C68.7798 8.724 68.5158 7.5 68.5398 6.036C68.5638 4.164 69.0678 2.724 70.0518 1.716C71.0358 0.707999 72.4998 0.204 74.4438 0.204C76.6278 0.204 78.2358 0.804 79.2678 2.004C80.2998 3.18 80.7198 4.86 80.5278 7.044C80.5038 7.38 80.3718 7.548 80.1318 7.548H76.4238C76.1838 7.548 76.0758 7.38 76.0998 7.044C76.1958 6.204 76.1118 5.508 75.8478 4.956C75.6078 4.38 75.1878 4.092 74.5878 4.092C74.0838 4.092 73.6878 4.26 73.3998 4.596C73.1358 4.908 72.9918 5.412 72.9678 6.108C72.9678 6.804 73.1118 7.392 73.3998 7.872C73.6878 8.328 74.0718 8.748 74.5518 9.132L77.5758 11.436C78.3918 12.036 79.0398 12.648 79.5198 13.272C79.9998 13.872 80.3358 14.556 80.5278 15.324C80.7438 16.068 80.8518 16.968 80.8518 18.024C80.8278 20.016 80.3118 21.552 79.3038 22.632C78.2958 23.688 76.6998 24.216 74.5158 24.216ZM88.461 24C88.221 24 88.101 23.856 88.101 23.568V4.416H84.321C84.081 4.416 83.961 4.272 83.961 3.984V0.852C83.961 0.563999 84.081 0.419999 84.321 0.419999H96.273C96.513 0.419999 96.633 0.563999 96.633 0.852V3.984C96.633 4.272 96.513 4.416 96.273 4.416H92.529V23.568C92.529 23.856 92.409 24 92.169 24H88.461ZM98.0857 24C97.8457 24 97.7497 23.844 97.7977 23.532L102.658 0.743999C102.706 0.527999 102.838 0.419999 103.054 0.419999H107.878C108.118 0.419999 108.262 0.527999 108.31 0.743999L113.134 23.532C113.206 23.844 113.122 24 112.882 24H108.742C108.526 24 108.394 23.892 108.346 23.676L106.186 9.672C106.066 8.856 105.946 8.04 105.826 7.224C105.706 6.384 105.598 5.556 105.502 4.74H105.43C105.31 5.556 105.202 6.384 105.106 7.224C105.01 8.04 104.89 8.868 104.746 9.708L102.514 23.676C102.49 23.892 102.358 24 102.118 24H98.0857ZM102.586 19.104L103.198 15.468H107.626L108.31 19.104H102.586ZM122.979 24.216C120.699 24.216 118.959 23.568 117.759 22.272C116.583 20.952 115.995 18.9 115.995 16.116V8.304C115.995 5.616 116.583 3.6 117.759 2.256C118.959 0.887999 120.699 0.204 122.979 0.204C124.587 0.204 125.919 0.551999 126.975 1.248C128.031 1.944 128.799 2.916 129.279 4.164C129.783 5.412 129.939 6.876 129.747 8.556C129.699 8.844 129.591 8.988 129.423 8.988H125.643C125.379 8.988 125.271 8.832 125.319 8.52C125.415 7.128 125.283 6.072 124.923 5.352C124.563 4.608 123.903 4.236 122.943 4.236C122.055 4.236 121.407 4.56 120.999 5.208C120.615 5.832 120.423 6.912 120.423 8.448V15.864C120.423 17.448 120.627 18.564 121.035 19.212C121.467 19.86 122.115 20.184 122.979 20.184C123.987 20.184 124.647 19.8 124.959 19.032C125.271 18.24 125.403 17.196 125.355 15.9C125.331 15.588 125.439 15.432 125.679 15.432H129.387C129.603 15.432 129.735 15.576 129.783 15.864C129.999 18.432 129.531 20.472 128.379 21.984C127.251 23.472 125.451 24.216 122.979 24.216ZM134.709 24C134.469 24 134.349 23.856 134.349 23.568V0.852C134.349 0.563999 134.469 0.419999 134.709 0.419999H138.453C138.693 0.419999 138.813 0.563999 138.813 0.852V5.928C138.813 6.408 138.801 6.972 138.777 7.62C138.753 8.268 138.729 8.916 138.705 9.564C138.681 10.188 138.645 10.752 138.597 11.256H138.669C138.909 10.512 139.161 9.696 139.425 8.808C139.713 7.896 140.085 6.948 140.541 5.964L143.025 0.635998C143.073 0.491999 143.205 0.419999 143.421 0.419999H147.597C147.909 0.419999 147.981 0.587999 147.813 0.923999L143.421 10.248L148.461 23.496C148.605 23.832 148.521 24 148.209 24H143.781C143.589 24 143.457 23.904 143.385 23.712L140.253 14.208L138.813 16.98V23.568C138.813 23.856 138.693 24 138.453 24H134.709ZM158.926 24C158.638 24 158.494 23.856 158.494 23.568V0.852C158.494 0.563999 158.638 0.419999 158.926 0.419999H164.074C166.786 0.419999 168.826 1.248 170.194 2.904C171.562 4.536 172.246 7.032 172.246 10.392V13.416C172.246 16.968 171.574 19.62 170.23 21.372C168.886 23.124 166.894 24 164.254 24H158.926ZM162.958 20.004H164.146C165.418 20.004 166.342 19.476 166.918 18.42C167.494 17.34 167.782 15.684 167.782 13.452V10.392C167.782 8.376 167.482 6.876 166.882 5.892C166.306 4.908 165.346 4.416 164.002 4.416H162.958V20.004ZM176.991 24C176.751 24 176.631 23.856 176.631 23.568V0.852C176.631 0.563999 176.751 0.419999 176.991 0.419999H187.287C187.527 0.419999 187.647 0.563999 187.647 0.852V3.984C187.647 4.272 187.527 4.416 187.287 4.416H181.095V10.176H186.711C186.951 10.176 187.071 10.32 187.071 10.608V13.56C187.071 13.824 186.951 13.956 186.711 13.956H181.095V20.004H187.287C187.527 20.004 187.647 20.148 187.647 20.436V23.568C187.647 23.856 187.527 24 187.287 24H176.991ZM196.054 24C195.886 24 195.766 23.892 195.694 23.676L191.014 0.887999C190.966 0.575999 191.062 0.419999 191.302 0.419999H195.37C195.61 0.419999 195.754 0.527999 195.802 0.743999L197.962 14.532C198.082 15.348 198.19 16.188 198.286 17.052C198.406 17.892 198.502 18.78 198.574 19.716H198.646C198.742 18.78 198.838 17.892 198.934 17.052C199.054 16.188 199.174 15.348 199.294 14.532L201.382 0.779999C201.406 0.539999 201.538 0.419999 201.778 0.419999H205.846C206.11 0.419999 206.218 0.575999 206.17 0.887999L201.526 23.676C201.478 23.892 201.358 24 201.166 24H196.054ZM210.135 24C209.895 24 209.775 23.856 209.775 23.568V0.852C209.775 0.563999 209.895 0.419999 210.135 0.419999H220.431C220.671 0.419999 220.791 0.563999 220.791 0.852V3.984C220.791 4.272 220.671 4.416 220.431 4.416H214.239V10.176H219.855C220.095 10.176 220.215 10.32 220.215 10.608V13.56C220.215 13.824 220.095 13.956 219.855 13.956H214.239V20.004H220.431C220.671 20.004 220.791 20.148 220.791 20.436V23.568C220.791 23.856 220.671 24 220.431 24H210.135ZM225.706 24C225.442 24 225.31 23.856 225.31 23.568V0.852C225.31 0.563999 225.442 0.419999 225.706 0.419999H229.378C229.642 0.419999 229.774 0.563999 229.774 0.852V20.004H235.462C235.726 20.004 235.858 20.148 235.858 20.436V23.568C235.858 23.856 235.726 24 235.462 24H225.706ZM246.065 24.216C243.785 24.216 242.045 23.556 240.845 22.236C239.669 20.916 239.081 18.972 239.081 16.404V8.088C239.081 5.472 239.669 3.504 240.845 2.184C242.045 0.864 243.785 0.204 246.065 0.204C248.345 0.204 250.085 0.864 251.285 2.184C252.485 3.504 253.085 5.472 253.085 8.088V16.404C253.085 18.972 252.485 20.916 251.285 22.236C250.085 23.556 248.345 24.216 246.065 24.216ZM246.065 20.184C246.953 20.184 247.601 19.884 248.009 19.284C248.417 18.66 248.621 17.64 248.621 16.224V8.232C248.621 6.792 248.417 5.772 248.009 5.172C247.601 4.548 246.953 4.236 246.065 4.236C245.201 4.236 244.553 4.548 244.121 5.172C243.713 5.772 243.509 6.792 243.509 8.232V16.224C243.509 17.64 243.713 18.66 244.121 19.284C244.553 19.884 245.201 20.184 246.065 20.184ZM257.971 24C257.731 24 257.611 23.856 257.611 23.568V0.852C257.611 0.563999 257.731 0.419999 257.971 0.419999H262.867C265.219 0.419999 266.947 1.056 268.051 2.328C269.179 3.576 269.743 5.52 269.743 8.16C269.743 10.656 269.167 12.564 268.015 13.884C266.863 15.204 265.183 15.864 262.975 15.864H262.075V23.568C262.075 23.856 261.955 24 261.715 24H257.971ZM262.075 11.868H262.867C263.707 11.868 264.319 11.568 264.703 10.968C265.111 10.368 265.315 9.444 265.315 8.196C265.315 6.852 265.123 5.892 264.739 5.316C264.355 4.716 263.743 4.416 262.903 4.416H262.075V11.868ZM274.315 24C274.075 24 273.955 23.856 273.955 23.568V0.852C273.955 0.563999 274.075 0.419999 274.315 0.419999H284.611C284.851 0.419999 284.971 0.563999 284.971 0.852V3.984C284.971 4.272 284.851 4.416 284.611 4.416H278.419V10.176H284.035C284.275 10.176 284.395 10.32 284.395 10.608V13.56C284.395 13.824 284.275 13.956 284.035 13.956H278.419V20.004H284.611C284.851 20.004 284.971 20.148 284.971 20.436V23.568C284.971 23.856 284.851 24 284.611 24H274.315ZM289.85 24C289.61 24 289.49 23.856 289.49 23.568V0.852C289.49 0.563999 289.61 0.419999 289.85 0.419999H295.178C297.602 0.419999 299.366 0.983999 300.47 2.112C301.598 3.216 302.162 4.98 302.162 7.404C302.162 9.132 301.922 10.524 301.442 11.58C300.986 12.612 300.29 13.356 299.354 13.812L299.318 13.884L303.062 23.496C303.158 23.832 303.062 24 302.774 24H298.706C298.49 24 298.346 23.904 298.274 23.712L295.178 14.712H293.954V23.568C293.954 23.856 293.834 24 293.594 24H289.85ZM293.954 10.968H295.214C296.102 10.968 296.738 10.692 297.122 10.14C297.506 9.588 297.698 8.748 297.698 7.62C297.698 6.492 297.494 5.676 297.086 5.172C296.678 4.668 296.042 4.416 295.178 4.416H293.954V10.968Z" fill="white" fill-opacity="0.87"/>
<path d="M0.764 24C0.524 24 0.404 23.856 0.404 23.568V0.852C0.404 0.563999 0.524 0.419999 0.764 0.419999H11.06C11.3 0.419999 11.42 0.563999 11.42 0.852V3.984C11.42 4.272 11.3 4.416 11.06 4.416H4.868V10.5H10.16C10.424 10.5 10.556 10.644 10.556 10.932V13.992C10.556 14.256 10.424 14.388 10.16 14.388H4.868V23.568C4.868 23.856 4.76 24 4.544 24H0.764ZM22.2484 24.216C19.9684 24.216 18.2644 23.544 17.1364 22.2C16.0084 20.856 15.4444 18.816 15.4444 16.08V0.815998C15.4444 0.551999 15.5644 0.419999 15.8044 0.419999H19.5844C19.8004 0.419999 19.9084 0.551999 19.9084 0.815998V15.972C19.9084 17.532 20.0884 18.624 20.4484 19.248C20.8324 19.872 21.4324 20.184 22.2484 20.184C23.0884 20.184 23.6884 19.872 24.0484 19.248C24.4324 18.624 24.6244 17.532 24.6244 15.972V0.815998C24.6244 0.551999 24.7444 0.419999 24.9844 0.419999H28.7284C28.9684 0.419999 29.0884 0.551999 29.0884 0.815998V16.08C29.0884 18.816 28.5124 20.856 27.3604 22.2C26.2324 23.544 24.5284 24.216 22.2484 24.216ZM34.1906 24C33.9266 24 33.7946 23.856 33.7946 23.568V0.852C33.7946 0.563999 33.9266 0.419999 34.1906 0.419999H37.8626C38.1266 0.419999 38.2586 0.563999 38.2586 0.852V20.004H43.9466C44.2106 20.004 44.3426 20.148 44.3426 20.436V23.568C44.3426 23.856 44.2106 24 43.9466 24H34.1906ZM48.5656 24C48.3016 24 48.1696 23.856 48.1696 23.568V0.852C48.1696 0.563999 48.3016 0.419999 48.5656 0.419999H52.2376C52.5016 0.419999 52.6336 0.563999 52.6336 0.852V20.004H58.3216C58.5856 20.004 58.7176 20.148 58.7176 20.436V23.568C58.7176 23.856 58.5856 24 58.3216 24H48.5656ZM74.5158 24.216C72.9798 24.216 71.7438 23.94 70.8078 23.388C69.8958 22.812 69.2478 21.996 68.8638 20.94C68.5038 19.86 68.3838 18.6 68.5038 17.16C68.5278 16.848 68.6478 16.692 68.8638 16.692H72.5358C72.7518 16.692 72.8478 16.836 72.8238 17.124C72.7278 18.132 72.8238 18.924 73.1118 19.5C73.4238 20.052 73.9158 20.328 74.5878 20.328C75.2118 20.328 75.6678 20.148 75.9558 19.788C76.2438 19.428 76.3878 18.84 76.3878 18.024C76.3878 17.328 76.2678 16.728 76.0278 16.224C75.8118 15.696 75.4398 15.24 74.9118 14.856L71.8518 12.48C70.7238 11.616 69.8838 10.692 69.3318 9.708C68.7798 8.724 68.5158 7.5 68.5398 6.036C68.5638 4.164 69.0678 2.724 70.0518 1.716C71.0358 0.707999 72.4998 0.204 74.4438 0.204C76.6278 0.204 78.2358 0.804 79.2678 2.004C80.2998 3.18 80.7198 4.86 80.5278 7.044C80.5038 7.38 80.3718 7.548 80.1318 7.548H76.4238C76.1838 7.548 76.0758 7.38 76.0998 7.044C76.1958 6.204 76.1118 5.508 75.8478 4.956C75.6078 4.38 75.1878 4.092 74.5878 4.092C74.0838 4.092 73.6878 4.26 73.3998 4.596C73.1358 4.908 72.9918 5.412 72.9678 6.108C72.9678 6.804 73.1118 7.392 73.3998 7.872C73.6878 8.328 74.0718 8.748 74.5518 9.132L77.5758 11.436C78.3918 12.036 79.0398 12.648 79.5198 13.272C79.9998 13.872 80.3358 14.556 80.5278 15.324C80.7438 16.068 80.8518 16.968 80.8518 18.024C80.8278 20.016 80.3118 21.552 79.3038 22.632C78.2958 23.688 76.6998 24.216 74.5158 24.216ZM88.461 24C88.221 24 88.101 23.856 88.101 23.568V4.416H84.321C84.081 4.416 83.961 4.272 83.961 3.984V0.852C83.961 0.563999 84.081 0.419999 84.321 0.419999H96.273C96.513 0.419999 96.633 0.563999 96.633 0.852V3.984C96.633 4.272 96.513 4.416 96.273 4.416H92.529V23.568C92.529 23.856 92.409 24 92.169 24H88.461ZM98.0857 24C97.8457 24 97.7497 23.844 97.7977 23.532L102.658 0.743999C102.706 0.527999 102.838 0.419999 103.054 0.419999H107.878C108.118 0.419999 108.262 0.527999 108.31 0.743999L113.134 23.532C113.206 23.844 113.122 24 112.882 24H108.742C108.526 24 108.394 23.892 108.346 23.676L106.186 9.672C106.066 8.856 105.946 8.04 105.826 7.224C105.706 6.384 105.598 5.556 105.502 4.74H105.43C105.31 5.556 105.202 6.384 105.106 7.224C105.01 8.04 104.89 8.868 104.746 9.708L102.514 23.676C102.49 23.892 102.358 24 102.118 24H98.0857ZM102.586 19.104L103.198 15.468H107.626L108.31 19.104H102.586ZM122.979 24.216C120.699 24.216 118.959 23.568 117.759 22.272C116.583 20.952 115.995 18.9 115.995 16.116V8.304C115.995 5.616 116.583 3.6 117.759 2.256C118.959 0.887999 120.699 0.204 122.979 0.204C124.587 0.204 125.919 0.551999 126.975 1.248C128.031 1.944 128.799 2.916 129.279 4.164C129.783 5.412 129.939 6.876 129.747 8.556C129.699 8.844 129.591 8.988 129.423 8.988H125.643C125.379 8.988 125.271 8.832 125.319 8.52C125.415 7.128 125.283 6.072 124.923 5.352C124.563 4.608 123.903 4.236 122.943 4.236C122.055 4.236 121.407 4.56 120.999 5.208C120.615 5.832 120.423 6.912 120.423 8.448V15.864C120.423 17.448 120.627 18.564 121.035 19.212C121.467 19.86 122.115 20.184 122.979 20.184C123.987 20.184 124.647 19.8 124.959 19.032C125.271 18.24 125.403 17.196 125.355 15.9C125.331 15.588 125.439 15.432 125.679 15.432H129.387C129.603 15.432 129.735 15.576 129.783 15.864C129.999 18.432 129.531 20.472 128.379 21.984C127.251 23.472 125.451 24.216 122.979 24.216ZM134.709 24C134.469 24 134.349 23.856 134.349 23.568V0.852C134.349 0.563999 134.469 0.419999 134.709 0.419999H138.453C138.693 0.419999 138.813 0.563999 138.813 0.852V5.928C138.813 6.408 138.801 6.972 138.777 7.62C138.753 8.268 138.729 8.916 138.705 9.564C138.681 10.188 138.645 10.752 138.597 11.256H138.669C138.909 10.512 139.161 9.696 139.425 8.808C139.713 7.896 140.085 6.948 140.541 5.964L143.025 0.635998C143.073 0.491999 143.205 0.419999 143.421 0.419999H147.597C147.909 0.419999 147.981 0.587999 147.813 0.923999L143.421 10.248L148.461 23.496C148.605 23.832 148.521 24 148.209 24H143.781C143.589 24 143.457 23.904 143.385 23.712L140.253 14.208L138.813 16.98V23.568C138.813 23.856 138.693 24 138.453 24H134.709ZM158.926 24C158.638 24 158.494 23.856 158.494 23.568V0.852C158.494 0.563999 158.638 0.419999 158.926 0.419999H164.074C166.786 0.419999 168.826 1.248 170.194 2.904C171.562 4.536 172.246 7.032 172.246 10.392V13.416C172.246 16.968 171.574 19.62 170.23 21.372C168.886 23.124 166.894 24 164.254 24H158.926ZM162.958 20.004H164.146C165.418 20.004 166.342 19.476 166.918 18.42C167.494 17.34 167.782 15.684 167.782 13.452V10.392C167.782 8.376 167.482 6.876 166.882 5.892C166.306 4.908 165.346 4.416 164.002 4.416H162.958V20.004ZM176.991 24C176.751 24 176.631 23.856 176.631 23.568V0.852C176.631 0.563999 176.751 0.419999 176.991 0.419999H187.287C187.527 0.419999 187.647 0.563999 187.647 0.852V3.984C187.647 4.272 187.527 4.416 187.287 4.416H181.095V10.176H186.711C186.951 10.176 187.071 10.32 187.071 10.608V13.56C187.071 13.824 186.951 13.956 186.711 13.956H181.095V20.004H187.287C187.527 20.004 187.647 20.148 187.647 20.436V23.568C187.647 23.856 187.527 24 187.287 24H176.991ZM196.054 24C195.886 24 195.766 23.892 195.694 23.676L191.014 0.887999C190.966 0.575999 191.062 0.419999 191.302 0.419999H195.37C195.61 0.419999 195.754 0.527999 195.802 0.743999L197.962 14.532C198.082 15.348 198.19 16.188 198.286 17.052C198.406 17.892 198.502 18.78 198.574 19.716H198.646C198.742 18.78 198.838 17.892 198.934 17.052C199.054 16.188 199.174 15.348 199.294 14.532L201.382 0.779999C201.406 0.539999 201.538 0.419999 201.778 0.419999H205.846C206.11 0.419999 206.218 0.575999 206.17 0.887999L201.526 23.676C201.478 23.892 201.358 24 201.166 24H196.054ZM210.135 24C209.895 24 209.775 23.856 209.775 23.568V0.852C209.775 0.563999 209.895 0.419999 210.135 0.419999H220.431C220.671 0.419999 220.791 0.563999 220.791 0.852V3.984C220.791 4.272 220.671 4.416 220.431 4.416H214.239V10.176H219.855C220.095 10.176 220.215 10.32 220.215 10.608V13.56C220.215 13.824 220.095 13.956 219.855 13.956H214.239V20.004H220.431C220.671 20.004 220.791 20.148 220.791 20.436V23.568C220.791 23.856 220.671 24 220.431 24H210.135ZM225.706 24C225.442 24 225.31 23.856 225.31 23.568V0.852C225.31 0.563999 225.442 0.419999 225.706 0.419999H229.378C229.642 0.419999 229.774 0.563999 229.774 0.852V20.004H235.462C235.726 20.004 235.858 20.148 235.858 20.436V23.568C235.858 23.856 235.726 24 235.462 24H225.706ZM246.065 24.216C243.785 24.216 242.045 23.556 240.845 22.236C239.669 20.916 239.081 18.972 239.081 16.404V8.088C239.081 5.472 239.669 3.504 240.845 2.184C242.045 0.864 243.785 0.204 246.065 0.204C248.345 0.204 250.085 0.864 251.285 2.184C252.485 3.504 253.085 5.472 253.085 8.088V16.404C253.085 18.972 252.485 20.916 251.285 22.236C250.085 23.556 248.345 24.216 246.065 24.216ZM246.065 20.184C246.953 20.184 247.601 19.884 248.009 19.284C248.417 18.66 248.621 17.64 248.621 16.224V8.232C248.621 6.792 248.417 5.772 248.009 5.172C247.601 4.548 246.953 4.236 246.065 4.236C245.201 4.236 244.553 4.548 244.121 5.172C243.713 5.772 243.509 6.792 243.509 8.232V16.224C243.509 17.64 243.713 18.66 244.121 19.284C244.553 19.884 245.201 20.184 246.065 20.184ZM257.971 24C257.731 24 257.611 23.856 257.611 23.568V0.852C257.611 0.563999 257.731 0.419999 257.971 0.419999H262.867C265.219 0.419999 266.947 1.056 268.051 2.328C269.179 3.576 269.743 5.52 269.743 8.16C269.743 10.656 269.167 12.564 268.015 13.884C266.863 15.204 265.183 15.864 262.975 15.864H262.075V23.568C262.075 23.856 261.955 24 261.715 24H257.971ZM262.075 11.868H262.867C263.707 11.868 264.319 11.568 264.703 10.968C265.111 10.368 265.315 9.444 265.315 8.196C265.315 6.852 265.123 5.892 264.739 5.316C264.355 4.716 263.743 4.416 262.903 4.416H262.075V11.868ZM274.315 24C274.075 24 273.955 23.856 273.955 23.568V0.852C273.955 0.563999 274.075 0.419999 274.315 0.419999H284.611C284.851 0.419999 284.971 0.563999 284.971 0.852V3.984C284.971 4.272 284.851 4.416 284.611 4.416H278.419V10.176H284.035C284.275 10.176 284.395 10.32 284.395 10.608V13.56C284.395 13.824 284.275 13.956 284.035 13.956H278.419V20.004H284.611C284.851 20.004 284.971 20.148 284.971 20.436V23.568C284.971 23.856 284.851 24 284.611 24H274.315ZM289.85 24C289.61 24 289.49 23.856 289.49 23.568V0.852C289.49 0.563999 289.61 0.419999 289.85 0.419999H295.178C297.602 0.419999 299.366 0.983999 300.47 2.112C301.598 3.216 302.162 4.98 302.162 7.404C302.162 9.132 301.922 10.524 301.442 11.58C300.986 12.612 300.29 13.356 299.354 13.812L299.318 13.884L303.062 23.496C303.158 23.832 303.062 24 302.774 24H298.706C298.49 24 298.346 23.904 298.274 23.712L295.178 14.712H293.954V23.568C293.954 23.856 293.834 24 293.594 24H289.85ZM293.954 10.968H295.214C296.102 10.968 296.738 10.692 297.122 10.14C297.506 9.588 297.698 8.748 297.698 7.62C297.698 6.492 297.494 5.676 297.086 5.172C296.678 4.668 296.042 4.416 295.178 4.416H293.954V10.968Z" fill="black" fill-opacity="0.7"/>
</g>
<defs>
<filter id="filter0_n_17_4" x="0.404007" y="0.204102" width="302.802" height="24.012" filterUnits="userSpaceOnUse" color-interpolation-filters="sRGB">
<feFlood flood-opacity="0" result="BackgroundImageFix"/>
<feBlend mode="normal" in="SourceGraphic" in2="BackgroundImageFix" result="shape"/>
<feTurbulence type="fractalNoise" baseFrequency="10 10" stitchTiles="stitch" numOctaves="3" result="noise" seed="8250" />
<feColorMatrix in="noise" type="luminanceToAlpha" result="alphaNoise" />
<feComponentTransfer in="alphaNoise" result="coloredNoise1">
<feFuncA type="discrete" tableValues="1 1 1 1 1 1 1 1 1 1 1 1 1 1 1 1 1 1 1 1 1 1 1 1 1 1 1 1 1 1 1 1 1 1 1 1 1 1 1 1 1 1 1 1 1 1 1 1 1 1 1 0 0 0 0 0 0 0 0 0 0 0 0 0 0 0 0 0 0 0 0 0 0 0 0 0 0 0 0 0 0 0 0 0 0 0 0 0 0 0 0 0 0 0 0 0 0 0 0 0 "/>
</feComponentTransfer>
<feComposite operator="in" in2="shape" in="coloredNoise1" result="noise1Clipped" />
<feComponentTransfer in="alphaNoise" result="coloredNoise2">
<feFuncA type="discrete" tableValues="0 0 0 0 0 0 0 0 0 0 0 0 0 0 0 0 0 0 0 0 0 0 0 0 0 0 0 0 0 0 0 0 0 0 0 0 0 0 0 0 0 0 0 0 0 0 0 0 0 1 1 1 1 1 1 1 1 1 1 1 1 1 1 1 1 1 1 1 1 1 1 1 1 1 1 1 1 1 1 1 1 1 1 1 1 1 1 1 1 1 1 1 1 1 1 1 1 1 1 1 "/>
</feComponentTransfer>
<feComposite operator="in" in2="shape" in="coloredNoise2" result="noise2Clipped" />
<feFlood flood-color="rgba(0, 0, 0, 0.25)" result="color1Flood" />
<feComposite operator="in" in2="noise1Clipped" in="color1Flood" result="color1" />
<feFlood flood-color="rgba(255, 255, 255, 0.25)" result="color2Flood" />
<feComposite operator="in" in2="noise2Clipped" in="color2Flood" result="color2" />
<feMerge result="effect1_noise_17_4">
<feMergeNode in="shape" />
<feMergeNode in="color1" />
<feMergeNode in="color2" />
</feMerge>
</filter>
</defs>
</svg>
