<?xml version="1.0" encoding="UTF-8"?>
<svg id="Layer_1" xmlns="http://www.w3.org/2000/svg" version="1.1" viewBox="0 0 22 23">
  <!-- Generator: Adobe Illustrator 29.0.1, SVG Export Plug-In . SVG Version: 2.1.0 Build 192)  -->
  <defs>
    <style>
      .st0 {
        fill: #0c0506;
      }
    </style>
  </defs>
  <path class="st0" d="M2.8,2.1c0-1.1.3-1.5,1.1-1.9C4.7-.2,6,0,7.5.7c.7.3.7.3,1.9.2,1.5-.2,3.5-.2,4.9,0,1.1.1,1.1.1,1.8-.2,2.2-1.1,3.9-1,4.5.2.3.6.4,2.1.1,3.3-.1.7-.1.8.2,1.2,2.3,3.2.6,8.4-3.2,10.3-.3.1-.5.2-.7.3-.6.2-.8.3-.6,1.4.1.5.2,1.8.3,2.8,0,1.9,0,1.9-.2,2.3-.5.5-1.1.5-1.6,0-.3-.3-.3-.5-.3-1.8,0-1.9-.2-3.1-.7-4.2-.6-1.3-.2-1.8,1.2-2,1.9-.4,3.4-1.5,4.3-3.2.8-1.6.9-3.8-.5-5.2-.4-.5-.4-.9-.1-2.2.1-.5.2-1.1.2-1.4,0-.4,0-.5-.3-.5s-.8.2-1.5.5l-1,.5c0,0-.2,0-.3,0-2.6-.3-5.1-.3-7.7,0-.1,0-.2,0-.3,0l-1-.5c-.6-.3-1.3-.5-1.5-.5-.4,0-.4.3,0,2,.2,1,.4,1.3-.3,2.1-1,1.3-1.2,2.8-.7,4.4.7,2.1,2.3,3.4,4.6,3.9,1.4.3,1.7.6,1.2,2.2-.4,1.2-.7,1.5-1.3,1.5s-1.3-.7-1-1.4c.1-.3,0-.3-.7-.6-2.3-.8-4.1-2.6-4.9-5-.6-1.8-.3-4.3.7-5.7.3-.5.3-.5.2-1.5,0-.5-.1-1.4-.1-1.9Z"/>
  <path class="st0" d="M2,15.6c-.3-.5-1-.6-1.5-.3-.5.3-.6,1-.3,1.4.2.4.5.6.8.9,0,0,0,0,.1.1.2.2.4.4.6.6.4.5.8,1.1,1.1,2.2.1.5.5.8.7.9.2.1.5.2.7.3.4,0,.9.2,1.4.2.5,0,1.1,0,1.6,0,0,.6.5,1,1.1,1s1.1-.5,1.1-1v-1c0-.6-.5-1-1.1-1s-.2,0-.3,0c-.6,0-1.5,0-2.2,0-.4,0-.6,0-.9,0-.3-1.2-.9-2.1-1.4-2.7-.2-.3-.5-.5-.7-.7,0,0,0,0-.1-.1-.2-.2-.4-.4-.5-.6Z"/>
</svg>