<svg width="19" height="18" viewBox="0 0 19 18" fill="none" xmlns="http://www.w3.org/2000/svg">
<g clip-path="url(#clip0_20_87)">
<path fill-rule="evenodd" clip-rule="evenodd" d="M9.5 13.5C12.1233 13.5 14.25 11.4853 14.25 9C14.25 6.51472 12.1233 4.5 9.5 4.5C6.87665 4.5 4.75 6.51472 4.75 9C4.75 11.4853 6.87665 13.5 9.5 13.5ZM9.5 12C11.2489 12 12.6667 10.6568 12.6667 9C12.6667 7.34314 11.2489 6 9.5 6C7.7511 6 6.33333 7.34314 6.33333 9C6.33333 10.6568 7.7511 12 9.5 12Z" fill="#0F0F0F"/>
<path d="M14.2502 3.75C13.8129 3.75 13.4585 4.08579 13.4585 4.5C13.4585 4.91421 13.8129 5.25 14.2502 5.25C14.6874 5.25 15.0418 4.91421 15.0418 4.5C15.0418 4.08579 14.6874 3.75 14.2502 3.75Z" fill="#0F0F0F"/>
<path fill-rule="evenodd" clip-rule="evenodd" d="M1.30947 3.20705C0.791748 4.16965 0.791748 5.42977 0.791748 7.95V10.05C0.791748 12.5702 0.791748 13.8304 1.30947 14.7929C1.76486 15.6397 2.49152 16.3281 3.3853 16.7595C4.40138 17.25 5.7315 17.25 8.39175 17.25H10.6084C13.2687 17.25 14.5988 17.25 15.6148 16.7595C16.5086 16.3281 17.2353 15.6397 17.6907 14.7929C18.2084 13.8304 18.2084 12.5702 18.2084 10.05V7.95C18.2084 5.42977 18.2084 4.16965 17.6907 3.20705C17.2353 2.36031 16.5086 1.6719 15.6148 1.24047C14.5988 0.75 13.2687 0.75 10.6084 0.75H8.39175C5.7315 0.75 4.40138 0.75 3.3853 1.24047C2.49152 1.6719 1.76486 2.36031 1.30947 3.20705ZM10.6084 2.25H8.39175C7.0355 2.25 6.11353 2.25117 5.40089 2.30632C4.70673 2.36005 4.35175 2.45744 4.10411 2.57698C3.50827 2.8646 3.02383 3.32354 2.72022 3.88803C2.59405 4.12263 2.49125 4.45893 2.43454 5.11656C2.37632 5.79169 2.37508 6.66513 2.37508 7.95V10.05C2.37508 11.3349 2.37632 12.2083 2.43454 12.8834C2.49125 13.5411 2.59405 13.8774 2.72022 14.112C3.02383 14.6764 3.50827 15.1354 4.10411 15.423C4.35175 15.5425 4.70673 15.64 5.40089 15.6937C6.11353 15.7488 7.0355 15.75 8.39175 15.75H10.6084C11.9647 15.75 12.8866 15.7488 13.5993 15.6937C14.2935 15.64 14.6484 15.5425 14.8961 15.423C15.4919 15.1354 15.9763 14.6764 16.2799 14.112C16.4061 13.8774 16.5089 13.5411 16.5656 12.8834C16.6238 12.2083 16.6251 11.3349 16.6251 10.05V7.95C16.6251 6.66513 16.6238 5.79169 16.5656 5.11656C16.5089 4.45893 16.4061 4.12263 16.2799 3.88803C15.9763 3.32354 15.4919 2.8646 14.8961 2.57698C14.6484 2.45744 14.2935 2.36005 13.5993 2.30632C12.8866 2.25117 11.9647 2.25 10.6084 2.25Z" fill="#0F0F0F"/>
</g>
<defs>
<clipPath id="clip0_20_87">
<rect width="19" height="18" fill="white"/>
</clipPath>
</defs>
</svg>
