<?xml version="1.0" encoding="UTF-8"?>
<svg id="Layer_1" xmlns="http://www.w3.org/2000/svg" version="1.1" viewBox="0 0 25 25">
  <!-- Generator: Adobe Illustrator 29.0.1, SVG Export Plug-In . SVG Version: 2.1.0 Build 192)  -->
  <defs>
    <style>
      .st0 {
        fill: #0c0506;
      }

      .st1 {
        fill: #0c0706;
      }
    </style>
  </defs>
  <path class="st1" d="M22.9,3.8c0-1-.8-1.7-1.7-1.7H3.8c-1,0-1.7.8-1.7,1.7v17.3c0,1,.8,1.7,1.7,1.7h17.3c1,0,1.7-.8,1.7-1.7V3.8ZM25,21.2c0,2.1-1.7,3.8-3.8,3.8H3.8c-2.1,0-3.8-1.7-3.8-3.8V3.8C0,1.7,1.7,0,3.8,0h17.3c2.1,0,3.8,1.7,3.8,3.8v17.3Z"/>
  <path class="st0" d="M6.2,18.4v-7.6c0-.6.5-1.1,1.1-1.1s1.1.5,1.1,1.1v7.6c0,.6-.5,1.1-1.1,1.1s-1.1-.5-1.1-1.1Z"/>
  <path class="st0" d="M7.3,8.3c.8,0,1.4-.6,1.4-1.4s-.6-1.4-1.4-1.4-1.4.6-1.4,1.4.6,1.4,1.4,1.4Z"/>
  <path class="st0" d="M16.7,18.4v-4.5c0-1.1-.9-2.1-2.1-2.1s-2.1.9-2.1,2.1v4.5c0,.6-.5,1.1-1.1,1.1s-1.1-.5-1.1-1.1v-4.5c0-2.3,1.9-4.2,4.2-4.2s4.2,1.9,4.2,4.2v4.5c0,.6-.5,1.1-1.1,1.1s-1.1-.5-1.1-1.1Z"/>
</svg>