<svg width="18" height="18" viewBox="0 0 18 18" fill="none" xmlns="http://www.w3.org/2000/svg">
<g clip-path="url(#clip0_20_93)">
<path d="M4.875 6C5.49632 6 6 5.49632 6 4.875C6 4.25368 5.49632 3.75 4.875 3.75C4.25368 3.75 3.75 4.25368 3.75 4.875C3.75 5.49632 4.25368 6 4.875 6Z" fill="#0F0F0F"/>
<path d="M3.75 7.5C3.75 7.08579 4.08579 6.75 4.5 6.75H5.25C5.66421 6.75 6 7.08578 6 7.5V13.5C6 13.9142 5.66421 14.25 5.25 14.25H4.5C4.08579 14.25 3.75 13.9142 3.75 13.5V7.5Z" fill="#0F0F0F"/>
<path d="M8.25 14.25H9C9.41422 14.25 9.75 13.9142 9.75 13.5V10.125C9.75 9 12 8.25 12 9.75V13.5003C12 13.9145 12.3358 14.25 12.75 14.25H13.5C13.9142 14.25 14.25 13.9142 14.25 13.5V9C14.25 7.5 13.125 6.75 11.625 6.75C10.125 6.75 9.75 7.875 9.75 7.875V7.5C9.75 7.08578 9.41422 6.75 9 6.75H8.25C7.83578 6.75 7.5 7.08579 7.5 7.5V13.5C7.5 13.9142 7.83578 14.25 8.25 14.25Z" fill="#0F0F0F"/>
<path fill-rule="evenodd" clip-rule="evenodd" d="M15 0.75C16.2427 0.75 17.25 1.75736 17.25 3V15C17.25 16.2427 16.2427 17.25 15 17.25H3C1.75736 17.25 0.75 16.2427 0.75 15V3C0.75 1.75736 1.75736 0.75 3 0.75H15ZM15 2.25C15.4142 2.25 15.75 2.58579 15.75 3V15C15.75 15.4142 15.4142 15.75 15 15.75H3C2.58579 15.75 2.25 15.4142 2.25 15V3C2.25 2.58579 2.58579 2.25 3 2.25H15Z" fill="#0F0F0F"/>
</g>
<defs>
<clipPath id="clip0_20_93">
<rect width="18" height="18" fill="white"/>
</clipPath>
</defs>
</svg>
