<svg width="607" height="320" viewBox="0 0 607 320" fill="none" xmlns="http://www.w3.org/2000/svg">
<path d="M38.5938 320H2.59375C1.39375 320 0.59375 319.2 0.59375 318V1.99999C0.59375 0.799985 1.39375 -4.76837e-06 2.59375 -4.76837e-06H46.5938C47.7938 -4.76837e-06 48.5938 0.39999 48.5938 1.99999L59.3938 156H61.3938L71.7938 1.99999C71.7938 0.39999 72.5938 -4.76837e-06 73.7938 -4.76837e-06H117.794C118.994 -4.76837e-06 119.794 0.799985 119.794 1.99999V318C119.794 319.2 118.994 320 117.794 320H81.7938C80.5938 320 79.7938 319.2 79.7938 318V144H77.7938L68.1938 318C68.1938 319.6 67.3938 320 66.1938 320H54.1938C52.9938 320 52.1938 319.6 52.1938 318L42.5938 144H40.5938V318C40.5938 319.2 39.7938 320 38.5938 320ZM184.938 -4.76837e-06C216.938 -4.76837e-06 216.938 20 216.938 64V256C216.938 300 216.938 320 184.938 320H160.938C128.938 320 128.938 300 128.938 256V64C128.938 20 128.938 -4.76837e-06 160.938 -4.76837e-06H184.938ZM176.938 284V36H168.938V284H176.938ZM274.031 124.4V36H266.031V118C266.031 122.4 266.031 126.8 274.031 134L294.031 154C312.031 172 314.031 172.4 314.031 204.8V256C314.031 300 314.031 320 282.031 320H258.031C226.031 320 226.031 300 226.031 256V191.6C226.031 190.4 226.831 189.6 228.031 189.6H264.031C265.231 189.6 266.031 190.4 266.031 191.6V284H274.031V198C274.031 193.6 274.431 188 266.031 182L250.031 168C228.831 149.2 226.031 141.6 226.031 109.2V64C226.031 20 226.031 -4.76837e-06 258.031 -4.76837e-06H282.031C314.031 -4.76837e-06 314.031 20 314.031 64V124.4C314.031 125.6 313.231 126.4 312.031 126.4H276.031C274.831 126.4 274.031 125.6 274.031 124.4ZM381.125 176H363.125V288H385.125C386.325 288 387.125 288.8 387.125 290V318C387.125 319.2 386.325 320 385.125 320H325.125C323.925 320 323.125 319.2 323.125 318V1.99999C323.125 0.799985 323.925 -4.76837e-06 325.125 -4.76837e-06H385.125C386.325 -4.76837e-06 387.125 0.799985 387.125 1.99999V30C387.125 31.2 386.325 32 385.125 32H363.125V144H381.125C382.325 144 383.125 144.8 383.125 146V174C383.125 175.2 382.325 176 381.125 176ZM440.094 124.4V36H432.094V118C432.094 122.4 432.094 126.8 440.094 134L460.094 154C478.094 172 480.094 172.4 480.094 204.8V256C480.094 300 480.094 320 448.094 320H424.094C392.094 320 392.094 300 392.094 256V191.6C392.094 190.4 392.894 189.6 394.094 189.6H430.094C431.294 189.6 432.094 190.4 432.094 191.6V284H440.094V198C440.094 193.6 440.494 188 432.094 182L416.094 168C394.894 149.2 392.094 141.6 392.094 109.2V64C392.094 20 392.094 -4.76837e-06 424.094 -4.76837e-06H448.094C480.094 -4.76837e-06 480.094 20 480.094 64V124.4C480.094 125.6 479.294 126.4 478.094 126.4H442.094C440.894 126.4 440.094 125.6 440.094 124.4ZM574.313 -4.76837e-06C606.313 -4.76837e-06 606.313 20 606.313 64V256C606.313 300 606.313 320 574.313 320H520.313C519.113 320 518.313 319.2 518.313 318V1.99999C518.313 0.799985 519.113 -4.76837e-06 520.313 -4.76837e-06H574.313ZM566.313 284V36H558.313V284H566.313Z" fill="white"/>
</svg>
