<svg width="1563" height="600" viewBox="0 0 1563 600" fill="none" xmlns="http://www.w3.org/2000/svg">
<g filter="url(#filter0_n_32_332)">
<path d="M71.8223 600H4.32227C2.07227 600 0.572266 598.5 0.572266 596.25V3.75C0.572266 1.49998 2.07227 0 4.32227 0H86.8223C89.0723 0 90.5723 0.74999 90.5723 3.75L110.822 292.5H114.572L134.072 3.75C134.072 0.74999 135.572 0 137.822 0H220.322C222.572 0 224.072 1.49998 224.072 3.75V596.25C224.072 598.5 222.572 600 220.322 600H152.822C150.572 600 149.072 598.5 149.072 596.25V270H145.322L127.322 596.25C127.322 599.25 125.822 600 123.572 600H101.072C98.8223 600 97.3223 599.25 97.3223 596.25L79.3223 270H75.5723V596.25C75.5723 598.5 74.0723 600 71.8223 600Z" fill="white" fill-opacity="0.4"/>
<path d="M71.8223 600H4.32227C2.07227 600 0.572266 598.5 0.572266 596.25V3.75C0.572266 1.49998 2.07227 0 4.32227 0H86.8223C89.0723 0 90.5723 0.74999 90.5723 3.75L110.822 292.5H114.572L134.072 3.75C134.072 0.74999 135.572 0 137.822 0H220.322C222.572 0 224.072 1.49998 224.072 3.75V596.25C224.072 598.5 222.572 600 220.322 600H152.822C150.572 600 149.072 598.5 149.072 596.25V270H145.322L127.322 596.25C127.322 599.25 125.822 600 123.572 600H101.072C98.8223 600 97.3223 599.25 97.3223 596.25L79.3223 270H75.5723V596.25C75.5723 598.5 74.0723 600 71.8223 600Z" fill="black" fill-opacity="0.7"/>
<path d="M369.342 0C429.342 0 429.342 37.5 429.342 120V480C429.342 562.5 429.342 600 369.342 600H324.342C264.342 600 264.342 562.5 264.342 480V120C264.342 37.5 264.342 0 324.342 0H369.342ZM354.342 532.5V67.5H339.342V532.5H354.342Z" fill="white" fill-opacity="0.4"/>
<path d="M369.342 0C429.342 0 429.342 37.5 429.342 120V480C429.342 562.5 429.342 600 369.342 600H324.342C264.342 600 264.342 562.5 264.342 480V120C264.342 37.5 264.342 0 324.342 0H369.342ZM354.342 532.5V67.5H339.342V532.5H354.342Z" fill="black" fill-opacity="0.7"/>
<path d="M559.518 233.25V67.5H544.518V221.25C544.518 229.5 544.518 237.75 559.518 251.25L597.018 288.75C630.768 322.5 634.518 323.25 634.518 384V480C634.518 562.5 634.518 600 574.518 600H529.518C469.518 600 469.518 562.5 469.518 480V359.25C469.518 357 471.018 355.5 473.268 355.5H540.768C543.018 355.5 544.518 357 544.518 359.25V532.5H559.518V371.25C559.518 363 560.268 352.5 544.518 341.25L514.518 315C474.768 279.75 469.518 265.5 469.518 204.75V120C469.518 37.5 469.518 0 529.518 0H574.518C634.518 0 634.518 37.5 634.518 120V233.25C634.518 235.5 633.018 237 630.768 237H563.268C561.018 237 559.518 235.5 559.518 233.25Z" fill="white" fill-opacity="0.4"/>
<path d="M559.518 233.25V67.5H544.518V221.25C544.518 229.5 544.518 237.75 559.518 251.25L597.018 288.75C630.768 322.5 634.518 323.25 634.518 384V480C634.518 562.5 634.518 600 574.518 600H529.518C469.518 600 469.518 562.5 469.518 480V359.25C469.518 357 471.018 355.5 473.268 355.5H540.768C543.018 355.5 544.518 357 544.518 359.25V532.5H559.518V371.25C559.518 363 560.268 352.5 544.518 341.25L514.518 315C474.768 279.75 469.518 265.5 469.518 204.75V120C469.518 37.5 469.518 0 529.518 0H574.518C634.518 0 634.518 37.5 634.518 120V233.25C634.518 235.5 633.018 237 630.768 237H563.268C561.018 237 559.518 235.5 559.518 233.25Z" fill="black" fill-opacity="0.7"/>
<path d="M783.443 330H749.693V540H790.943C793.193 540 794.693 541.5 794.693 543.75V596.25C794.693 598.5 793.193 600 790.943 600H678.443C676.193 600 674.693 598.5 674.693 596.25V3.75C674.693 1.49998 676.193 0 678.443 0H790.943C793.193 0 794.693 1.49998 794.693 3.75V56.25C794.693 58.5 793.193 60 790.943 60H749.693V270H783.443C785.693 270 787.193 271.5 787.193 273.75V326.25C787.193 328.5 785.693 330 783.443 330Z" fill="white" fill-opacity="0.4"/>
<path d="M783.443 330H749.693V540H790.943C793.193 540 794.693 541.5 794.693 543.75V596.25C794.693 598.5 793.193 600 790.943 600H678.443C676.193 600 674.693 598.5 674.693 596.25V3.75C674.693 1.49998 676.193 0 678.443 0H790.943C793.193 0 794.693 1.49998 794.693 3.75V56.25C794.693 58.5 793.193 60 790.943 60H749.693V270H783.443C785.693 270 787.193 271.5 787.193 273.75V326.25C787.193 328.5 785.693 330 783.443 330Z" fill="black" fill-opacity="0.7"/>
<path d="M917.135 233.25V67.5H902.135V221.25C902.135 229.5 902.135 237.75 917.135 251.25L954.635 288.75C988.385 322.5 992.135 323.25 992.135 384V480C992.135 562.5 992.135 600 932.135 600H887.135C827.135 600 827.135 562.5 827.135 480V359.25C827.135 357 828.635 355.5 830.885 355.5H898.385C900.635 355.5 902.135 357 902.135 359.25V532.5H917.135V371.25C917.135 363 917.885 352.5 902.135 341.25L872.135 315C832.385 279.75 827.135 265.5 827.135 204.75V120C827.135 37.5 827.135 0 887.135 0H932.135C992.135 0 992.135 37.5 992.135 120V233.25C992.135 235.5 990.635 237 988.385 237H920.885C918.635 237 917.135 235.5 917.135 233.25Z" fill="white" fill-opacity="0.4"/>
<path d="M917.135 233.25V67.5H902.135V221.25C902.135 229.5 902.135 237.75 917.135 251.25L954.635 288.75C988.385 322.5 992.135 323.25 992.135 384V480C992.135 562.5 992.135 600 932.135 600H887.135C827.135 600 827.135 562.5 827.135 480V359.25C827.135 357 828.635 355.5 830.885 355.5H898.385C900.635 355.5 902.135 357 902.135 359.25V532.5H917.135V371.25C917.135 363 917.885 352.5 902.135 341.25L872.135 315C832.385 279.75 827.135 265.5 827.135 204.75V120C827.135 37.5 827.135 0 887.135 0H932.135C992.135 0 992.135 37.5 992.135 120V233.25C992.135 235.5 990.635 237 988.385 237H920.885C918.635 237 917.135 235.5 917.135 233.25Z" fill="black" fill-opacity="0.7"/>
<path d="M1036.06 0H1148.56C1150.81 0 1152.31 1.49998 1152.31 3.75V56.25C1152.31 58.5 1150.81 60 1148.56 60H1107.31V270H1141.06C1143.31 270 1144.81 271.5 1144.81 273.75V326.25C1144.81 328.5 1143.31 330 1141.06 330H1107.31V596.25C1107.31 598.5 1105.81 600 1103.56 600H1036.06C1033.81 600 1032.31 598.5 1032.31 596.25V3.75C1032.31 1.49998 1033.81 0 1036.06 0Z" fill="white" fill-opacity="0.4"/>
<path d="M1036.06 0H1148.56C1150.81 0 1152.31 1.49998 1152.31 3.75V56.25C1152.31 58.5 1150.81 60 1148.56 60H1107.31V270H1141.06C1143.31 270 1144.81 271.5 1144.81 273.75V326.25C1144.81 328.5 1143.31 330 1141.06 330H1107.31V596.25C1107.31 598.5 1105.81 600 1103.56 600H1036.06C1033.81 600 1032.31 598.5 1032.31 596.25V3.75C1032.31 1.49998 1033.81 0 1036.06 0Z" fill="black" fill-opacity="0.7"/>
<path d="M1297.08 0C1357.08 0 1357.08 37.5 1357.08 120V480C1357.08 562.5 1357.08 600 1297.08 600H1195.83C1193.58 600 1192.08 598.5 1192.08 596.25V3.75C1192.08 1.49998 1193.58 0 1195.83 0H1297.08ZM1282.08 532.5V67.5H1267.08V532.5H1282.08Z" fill="white" fill-opacity="0.4"/>
<path d="M1297.08 0C1357.08 0 1357.08 37.5 1357.08 120V480C1357.08 562.5 1357.08 600 1297.08 600H1195.83C1193.58 600 1192.08 598.5 1192.08 596.25V3.75C1192.08 1.49998 1193.58 0 1195.83 0H1297.08ZM1282.08 532.5V67.5H1267.08V532.5H1282.08Z" fill="black" fill-opacity="0.7"/>
<path d="M1502.25 0C1562.25 0 1562.25 37.5 1562.25 120V480C1562.25 562.5 1562.25 600 1502.25 600H1457.25C1397.25 600 1397.25 562.5 1397.25 480V120C1397.25 37.5 1397.25 0 1457.25 0H1502.25ZM1487.25 532.5V67.5H1472.25V532.5H1487.25Z" fill="white" fill-opacity="0.4"/>
<path d="M1502.25 0C1562.25 0 1562.25 37.5 1562.25 120V480C1562.25 562.5 1562.25 600 1502.25 600H1457.25C1397.25 600 1397.25 562.5 1397.25 480V120C1397.25 37.5 1397.25 0 1457.25 0H1502.25ZM1487.25 532.5V67.5H1472.25V532.5H1487.25Z" fill="black" fill-opacity="0.7"/>
</g>
<defs>
<filter id="filter0_n_32_332" x="0.572266" y="0" width="1561.68" height="600" filterUnits="userSpaceOnUse" color-interpolation-filters="sRGB">
<feFlood flood-opacity="0" result="BackgroundImageFix"/>
<feBlend mode="normal" in="SourceGraphic" in2="BackgroundImageFix" result="shape"/>
<feTurbulence type="fractalNoise" baseFrequency="3.3333332538604736 3.3333332538604736" stitchTiles="stitch" numOctaves="3" result="noise" seed="3528" />
<feColorMatrix in="noise" type="luminanceToAlpha" result="alphaNoise" />
<feComponentTransfer in="alphaNoise" result="coloredNoise1">
<feFuncA type="discrete" tableValues="0 0 0 0 0 0 0 0 0 1 1 1 1 1 1 1 1 1 1 1 1 1 1 1 1 1 1 1 1 1 1 1 1 1 1 1 1 1 1 1 1 1 0 0 0 0 0 0 0 0 0 0 0 0 0 0 0 0 0 0 0 0 0 0 0 0 0 0 0 0 0 0 0 0 0 0 0 0 0 0 0 0 0 0 0 0 0 0 0 0 0 0 0 0 0 0 0 0 0 0 "/>
</feComponentTransfer>
<feComposite operator="in" in2="shape" in="coloredNoise1" result="noise1Clipped" />
<feComponentTransfer in="alphaNoise" result="coloredNoise2">
<feFuncA type="discrete" tableValues="0 0 0 0 0 0 0 0 0 0 0 0 0 0 0 0 0 0 0 0 0 0 0 0 0 0 0 0 0 0 0 0 0 0 0 0 0 0 0 0 0 0 0 0 0 0 0 0 0 0 0 0 0 0 0 0 0 0 1 1 1 1 1 1 1 1 1 1 1 1 1 1 1 1 1 1 1 1 1 1 1 1 1 1 1 1 1 1 1 1 1 0 0 0 0 0 0 0 0 0 "/>
</feComponentTransfer>
<feComposite operator="in" in2="shape" in="coloredNoise2" result="noise2Clipped" />
<feFlood flood-color="rgba(0, 0, 0, 0.25)" result="color1Flood" />
<feComposite operator="in" in2="noise1Clipped" in="color1Flood" result="color1" />
<feFlood flood-color="rgba(255, 255, 255, 0.25)" result="color2Flood" />
<feComposite operator="in" in2="noise2Clipped" in="color2Flood" result="color2" />
<feMerge result="effect1_noise_32_332">
<feMergeNode in="shape" />
<feMergeNode in="color1" />
<feMergeNode in="color2" />
</feMerge>
</filter>
</defs>
</svg>
